<svg width="180" height="180" viewBox="0 0 180 180" xmlns="http://www.w3.org/2000/svg">
  <!-- Background with brand color -->
  <rect width="180" height="180" rx="36" fill="#4F46E5"/>
  
  <!-- Store icon from Lucide (scaled up for touch icon) -->
  <g transform="translate(45, 45)" fill="none" stroke="white" stroke-width="8" stroke-linecap="round" stroke-linejoin="round">
    <!-- Store building shape -->
    <path d="m5 17.5 11.03-11.03A5 5 0 0 1 19.58 5h20.84a5 5 0 0 1 3.55 1.47L55 17.5"/>
    <path d="M10 30v20a5 5 0 0 0 5 5h30a5 5 0 0 0 5-5V30"/>
    <path d="M37.5 55v-10a5 5 0 0 0-5-5h-5a5 5 0 0 0-5 5v10"/>
    <path d="M5 17.5h50l-5 12.5H10l-5-12.5Z"/>
  </g>
</svg>