<svg width="180" height="180" viewBox="0 0 180 180" xmlns="http://www.w3.org/2000/svg">
  <!-- Background with brand color -->
  <rect width="180" height="180" rx="36" fill="#4F46E5"/>

  <!-- Shield Plus icon from Lucide (scaled up for touch icon) -->
  <g transform="translate(30, 30)" fill="none" stroke="white" stroke-width="8" stroke-linecap="round" stroke-linejoin="round">
    <path d="M100 65c0 25-17.5 37.5-38.3 44.75a5 5 0 0 1-3.35-.05C37.5 102.5 20 90 20 65V30a5 5 0 0 1 5-5c10 0 22.5-6 31.2-13.6a5.85 5.85 0 0 1 7.6 0C72.55 19.05 85 25 95 25a5 5 0 0 1 5 5z"/>
    <path d="M45 60h30"/>
    <path d="M60 45v30"/>
  </g>
</svg>