<svg width="32" height="32" viewBox="0 0 32 32" xmlns="http://www.w3.org/2000/svg">
  <!-- Background with brand color -->
  <rect width="32" height="32" rx="6" fill="#4F46E5"/>
  
  <!-- Store icon from Lucide (white stroke on brand background) -->
  <g transform="translate(6, 6)" fill="none" stroke="white" stroke-width="2" stroke-linecap="round" stroke-linejoin="round">
    <!-- Store building shape -->
    <path d="m2 7 4.41-4.41A2 2 0 0 1 7.83 2h8.34a2 2 0 0 1 1.42.59L22 7"/>
    <path d="M4 12v8a2 2 0 0 0 2 2h12a2 2 0 0 0 2-2v-8"/>
    <path d="M15 22v-4a2 2 0 0 0-2-2h-2a2 2 0 0 0-2 2v4"/>
    <path d="M2 7h20l-2 5H4l-2-5Z"/>
  </g>
</svg>
